M48
;Layer_Color=9474304
;FILE_FORMAT=4:4
METRIC,LZ
;TYPE=PLATED
T01F00S00C0.3000
T02F00S00C0.4000
T03F00S00C0.6000
T04F00S00C0.7000
T06F00S00C0.8000
T07F00S00C0.9000
T08F00S00C0.9144
T09F00S00C1.0000
T10F00S00C1.0700
T11F00S00C1.2400
T12F00S00C1.2700
T13F00S00C1.5000
T14F00S00C1.7000
T15F00S00C3.2000
;TYPE=NON_PLATED
T16F00S00C3.2000
%
T01
X02514612Y01162535
X02524612
Y01172535
X02514612
T02
X0241173Y0067691
X0230759Y0067945
X0226187Y0067564
X0226314Y0069215
X02261724Y00706742
X02273953Y00699189
X0228854Y007239
X02324371Y00720337
X0234188Y0071628
X0228219Y0061849
X022225Y0061722
X0216535
X0213995Y0067979
Y0069723
Y007112
X0218059Y0070485
X0219259
X0217932Y0073914
X0219964Y0074549
X02215107Y00669187
X0208026Y0064643
X0188849Y0072517
X0184531Y0074803
X01957153Y00808852
X0194945Y00821548
X01950215Y0083989
X0196088Y0083439
X0194945Y00860317
X0204851Y00861202
X0205613Y00873252
X02065697Y00850011
X02059197Y00835698
X02043967Y00828411
X0229362Y0082423
X0247534Y01157625
X0248804Y0118364
X0250317Y0119888
T03
X02632576Y00640813
X0227584Y00750333
X02234819
X0212725Y0066675
X0198247Y0070231
X01845369Y01074648
X0204597Y0097663
X02049679Y00892795
X0202946Y0089916
X0211582Y008382
X02134139
X0212344Y010414
X0224028Y0107061
X0238252Y0111887
X0238379Y0114935
X0240665Y0113157
X02460796Y011782
X0247819Y0109982
X02539588Y01148049
X0255778Y0118364
X0259588Y0115951
Y011176
X0265049Y0113538
X0266954
X0269494
X0267081Y0109982
X0250189Y0085852
X0254254Y0120523
Y0123063
X0258191Y0125857
X0246888Y012192
X0225298Y0127381
X0218694Y0134112
X0217297Y0121158
X0192278Y0132969
X0185039Y0127889
T04
X0232283Y0099187
T06
X0233426Y0081407
T07
X0238633Y0045974
X0241173
X0243713
T08
X02534731Y00685121
X02733731
X02734731Y0091512
X02534731
T09
X0247269Y006731
X0235331Y0058547
X0196215Y0063881
X0180467Y0078486
X0188468Y0100203
X0180467Y0112268
X0237744Y0093091
Y0090551
X0245491Y0088392
X0253238Y0098552
X0255397Y0107442
X0274193Y0108204
X0227711Y0119634
X0224536Y0135001
Y0140716
X0213741Y0130683
X0211963Y0126365
X0202692Y0119634
T10
X0201236Y0125349
X0201109Y0130429
X0190559
X0190686Y0125349
T11
X0232283Y0088011
Y0090551
Y0093091
T12
X0265557Y0076708
X0236601
X0219964Y0104511
Y0107061
Y0109611
X0206345Y0109965
Y0107415
Y0104865
X0244348Y0131191
Y0136271
T13
X0206756Y0136398
X0211836
Y0141478
X0206756
T14
X0199744Y0047489
X0203944
X0208144
Y0051689
X0203944
X0199744
X0212344
X0216544
X0220744
X0224944
X0229144
Y0047489
X0224944
X0220744
X0216544
X0212344
X0195544
X0191344
Y0051689
X0195544
X0209296Y0138938
T15
X027178Y0136652
T16
X027178Y0051054
X0184658
Y0136652
M30
